<?xml version="1.0" encoding="UTF-8" standalone="no"?>
<!DOCTYPE svg PUBLIC "-//W3C//DTD SVG 1.1//EN"
 "http://www.w3.org/Graphics/SVG/1.1/DTD/svg11.dtd">
<!-- Generated by graphviz version 2.44.0 (20200408.0750)
 -->
<!-- Pages: 1 -->
<svg width="112pt" height="188pt"
 viewBox="0.00 0.00 111.99 188.00" xmlns="http://www.w3.org/2000/svg" xmlns:xlink="http://www.w3.org/1999/xlink">
<g id="graph0" class="graph" transform="scale(1 1) rotate(0) translate(4 184)">
<polygon fill="white" stroke="transparent" points="-4,4 -4,-184 107.99,-184 107.99,4 -4,4"/>
<!-- Thing -->
<g id="node1" class="node">
<title>Thing</title>
<ellipse fill="none" stroke="black" cx="52" cy="-162" rx="31.7" ry="18"/>
<text text-anchor="middle" x="52" y="-158.3" font-family="Times,serif" font-size="14.00">Thing</text>
</g>
<!-- Assay -->
<g id="node2" class="node">
<title>Assay</title>
<ellipse fill="none" stroke="black" cx="52" cy="-90" rx="32.49" ry="18"/>
<text text-anchor="middle" x="52" y="-86.3" font-family="Times,serif" font-size="14.00">Assay</text>
</g>
<!-- Thing&#45;&gt;Assay -->
<g id="edge1" class="edge">
<title>Thing&#45;&gt;Assay</title>
<path fill="none" stroke="black" d="M52,-143.7C52,-135.98 52,-126.71 52,-118.11"/>
<polygon fill="black" stroke="black" points="55.5,-118.1 52,-108.1 48.5,-118.1 55.5,-118.1"/>
</g>
<!-- Sequencing -->
<g id="node3" class="node">
<title>Sequencing</title>
<ellipse fill="none" stroke="black" cx="52" cy="-18" rx="51.99" ry="18"/>
<text text-anchor="middle" x="52" y="-14.3" font-family="Times,serif" font-size="14.00">Sequencing</text>
</g>
<!-- Assay&#45;&gt;Sequencing -->
<g id="edge2" class="edge">
<title>Assay&#45;&gt;Sequencing</title>
<path fill="none" stroke="black" d="M52,-71.7C52,-63.98 52,-54.71 52,-46.11"/>
<polygon fill="black" stroke="black" points="55.5,-46.1 52,-36.1 48.5,-46.1 55.5,-46.1"/>
</g>
</g>
</svg>
